# xmcd CD database file
#
# Track frame offsets:
#	150
#	10362
#	23697
#	43345
#	57955
#	70945
#	87882
#	101260
#	112612
#	125032
#	134292
#	144042
#	156477
#	169500
#	188100
#	201977
#
# Disc length: 2856 seconds
#
# Revision: 0
# Processed by: cddbd v1.5.1PL2 Copyright (c) Steve Scherf et al.
# Submitted via: CDex 1.51
#
DISCID=d40b2610
DTITLE=Dream of America - 5 COUNTRY AND FOLK
DYEAR=1990
DGENRE=Country
TTITLE0=HELLO MARY LOU - GENE PITNEY
TTITLE1=JAMBALAYA - JO STAFFORD
TTITLE2=GEORGIA ON MY MIND - WILLIE NELSON
TTITLE3=GENTLE ON MY MIND - TAMMY WYNETTE
TTITLE4=ROSE GARDEN - LYNN ANDERSON
TTITLE5=SAN ANTONIO ROSE - WLLIE NELSON AND RAY PRICE
TTITLE6=TOP OF THE WORLD - LYNN ANDERSON
TTITLE7=GREEN, GREEN GRASS OF HOME - JOHNNY CASH
TTITLE8=THE MOST BEAUTIFUL GIRL - CHARLIE RICH
TTITLE9=RAWHIDE - FRANKIE LAINE
TTITLE10=GREEN, GREEN - THE NEW CHRISTY MINSTRELS
TTITLE11=TODAY - THE NEW CHRISTY MINSTRELS
TTITLE12=IF I HAD A HAMMER - PETE SEEGER
TTITLE13=A SON FOR YOU - LEON RUSSELL
TTITLE14=GREENFIELDS - THE BROTHERS FOUR
TTITLE15=SEVEN DAFFODILS - THE BROTHERS FOUR
EXTD=YEAR: 1990
EXTT0=
EXTT1=
EXTT2=
EXTT3=
EXTT4=
EXTT5=
EXTT6=
EXTT7=
EXTT8=
EXTT9=
EXTT10=
EXTT11=
EXTT12=
EXTT13=
EXTT14=
EXTT15=
PLAYORDER=
